<svg xmlns="http://www.w3.org/2000/svg" viewBox="0,0,256,256" width="50" height="50"><g fill="#000000" fill-rule="nonzero" stroke="none" stroke-width="1" stroke-linecap="butt" stroke-linejoin="miter" stroke-miterlimit="10" stroke-dasharray="" stroke-dashoffset="0" font-family="none" font-weight="none" font-size="none" text-anchor="none" style="mix-blend-mode: normal"><g transform="scale(5.12,5.12)"><path d="M8.21875,2c-1.11328,0.08984 -2.19141,0.73438 -2.78125,1.78125c-0.29687,0.52344 -0.44141,1.11719 -0.4375,1.71875v28.75l1.5625,1.09375c0.42578,0.23438 0.94922,0.23438 1.375,0l3.0625,-1.75v-15.09375c0.01563,-1.92187 1.57813,-3.48437 3.5,-3.46875c0.58984,0.00391 1.17578,0.17969 1.6875,0.46875l8.8125,4.90625v-1.875c0,-1.00391 0.80469,-1.8125 1.8125,-1.8125c0.3125,0 0.63281,0.06641 0.90625,0.21875l6.46875,3.625l4.15625,-2.3125l-28.15625,-15.8125c-0.62891,-0.35547 -1.30078,-0.49219 -1.96875,-0.4375zM14.375,17c-0.47266,0.03516 -0.9375,0.30469 -1.1875,0.75c-0.12891,0.22656 -0.19141,0.48828 -0.1875,0.75v14l12,-6.75v-3.0625l-9.78125,-5.5c-0.26562,-0.15234 -0.55859,-0.21094 -0.84375,-0.1875zM27,18.84375v12.3125l11,-6.15625zM40.375,19.375l-4.15625,2.34375l3.25,1.8125c0.80859,0.45313 1.07813,1.47266 0.625,2.28125c-0.15234,0.26953 -0.35547,0.50391 -0.625,0.65625l-1.84375,1l4.15625,2.34375l3.84375,-2.15625c1.47266,-0.83203 1.98828,-2.71484 1.15625,-4.1875c-0.27344,-0.48437 -0.67187,-0.88281 -1.15625,-1.15625v0.03125zM25,28l-12,6.75v11.25l26.75,-15l-4.15625,-2.375l-7.875,4.4375c-0.875,0.49609 -1.97266,0.1875 -2.46875,-0.6875c-0.15625,-0.27734 -0.25391,-0.58984 -0.25,-0.90625zM11,35.875l-2.09375,1.125c-1.05859,0.60156 -2.34766,0.60156 -3.40625,0l-0.5,-0.3125v7.84375c0.00781,1.91406 1.55078,3.44531 3.46875,3.4375c0.59766,-0.00391 1.19922,-0.14062 1.71875,-0.4375l0.8125,-0.46875z"></path></g></g></svg>